# xmcd
#
# Track frame offsets:
#   150
#   12759
#   27601
#   44129
#   58122
#   70677
#   86876
#   102222
#   117885
#   132324
#
# Disc length: 1982 seconds
#
# Revision: 0
# Processed by: cddbd v1.5.1PL0 Copyright (c) Steve Scherf et al.
# Submitted via: Media_Universe 3.0
#
DISCID=8c07bc0a
DTITLE=Clay Walker - Hypnotize The Moon
DYEAR=1900
DGENRE=Country
TTITLE0=Who Needs You Baby
TTITLE1=Let Me Take That Heartache (off your hands)
TTITLE2=Hypnotize The Moon
TTITLE3=Hand Me Down Heart
TTITLE4=Only On Days That End With Y
TTITLE5=Where Were You
TTITLE6=Loving You Comes Naturally To Me
TTITLE7=Bury The Shovel
TTITLE8=A Cowboy's Toughest Ride
TTITLE9=Love Me Like You Love Me
EXTD=
EXTT0=
EXTT1=
EXTT2=
EXTT3=
EXTT4=
EXTT5=
EXTT6=
EXTT7=
EXTT8=
EXTT9=
PLAYORDER=
